<svg xmlns="http://www.w3.org/2000/svg" width="1536" height="1024" viewBox="0 0 1536 1024" version="1.1"><path d="M 1123.863 151.002 C 1093.078 155.904, 1062.652 172.094, 1038.494 196.428 C 1000.330 234.868, 987.389 280.546, 1002.909 322.027 C 1005.574 329.150, 1014.032 343.874, 1019.840 351.500 C 1022.353 354.800, 1029.867 364.025, 1036.538 372 C 1063.911 404.727, 1072.605 419.612, 1076.542 440.500 C 1081.203 465.227, 1074.317 489.707, 1058.121 505.986 C 1047.618 516.542, 1038.802 521.179, 1026 522.880 C 992.345 527.351, 969.944 499.607, 977.503 462.815 C 981.750 442.146, 998.419 422.251, 1016.609 416.140 C 1023.999 413.658, 1026.534 410.658, 1025.572 405.530 C 1024.647 400.603, 1019.132 394.749, 1012.742 391.912 C 1005.265 388.593, 991.347 388.554, 981.500 391.826 C 968.144 396.262, 954.069 407.135, 944.378 420.500 C 939.489 427.242, 932.606 441.830, 929.986 451 C 927.012 461.414, 926.181 482.461, 928.303 493.640 C 936.657 537.643, 978.614 567.810, 1028.500 565.682 C 1069.218 563.945, 1101.871 542.093, 1121.840 503.215 C 1131.672 484.076, 1136.870 464.539, 1137.729 443.500 C 1138.392 427.246, 1136.910 415.573, 1132.501 402.340 C 1125.840 382.349, 1118.068 369.839, 1095.060 342.072 C 1077.431 320.798, 1073.063 314.590, 1068.003 303.619 C 1063.076 292.936, 1061.909 287.696, 1061.881 276.117 C 1061.855 265.427, 1062.784 260.278, 1066.545 250.279 C 1072.394 234.731, 1081.363 221.670, 1095.419 208.232 C 1112.226 192.165, 1127.358 184.665, 1143 184.651 C 1149.629 184.645, 1152.624 185.137, 1156.607 186.884 C 1174.877 194.896, 1179.038 218.591, 1166.506 243.259 C 1159.729 256.598, 1145.289 272.087, 1133.185 279 C 1128.559 281.642, 1126.784 283.302, 1125.944 285.771 C 1123.177 293.904, 1128.794 304.567, 1138.432 309.478 C 1143.674 312.148, 1145.363 312.499, 1152.932 312.490 C 1160.709 312.481, 1162.205 312.144, 1169.140 308.842 C 1186.148 300.742, 1201.967 280.430, 1210.295 256 C 1214.197 244.551, 1215.365 236.760, 1215.388 222 C 1215.405 210.958, 1214.998 207.052, 1213.151 200.545 C 1206.220 176.120, 1189.007 159.361, 1164.196 152.880 C 1155.389 150.580, 1133.046 149.540, 1123.863 151.002 M 268 156.066 C 215.744 161.769, 162.919 183.398, 118.114 217.437 C 80.592 245.942, 59.785 274.994, 52.894 308.500 C 50.952 317.942, 51.455 337.069, 53.888 346.300 C 59.803 368.741, 75.905 385.303, 96.955 390.597 C 106.751 393.061, 119.703 392.201, 127.762 388.552 C 135.767 384.927, 141.243 379.139, 140.808 374.764 C 140.516 371.827, 140.177 371.598, 134.369 370.419 C 126.787 368.880, 123.065 366.998, 118.429 362.362 C 98.326 342.259, 115.702 295.373, 158.616 253.919 C 176.163 236.969, 193.538 224.705, 215.284 213.920 C 252.287 195.568, 294.252 188.891, 324.355 196.567 C 342.217 201.121, 355.600 211.935, 363.256 228 C 368.520 239.045, 369.715 243.518, 370.998 256.974 C 375.227 301.360, 351.077 363.902, 308.432 419 C 298.183 432.243, 271.445 459.500, 259 469.392 C 237.242 486.686, 212.033 500.805, 190.160 507.945 C 173.670 513.328, 166.083 514.450, 146.500 514.402 C 125.443 514.350, 118.620 512.931, 103.089 505.376 C 95.437 501.654, 92.201 499.322, 85.784 492.905 C 76.817 483.938, 74.826 482.616, 71.712 483.560 C 63.224 486.131, 60.795 499.371, 66.022 514.565 C 70.244 526.836, 81.860 540.467, 95.585 549.255 C 147.579 582.546, 230.816 567.965, 300.759 513.314 C 347.667 476.662, 386.489 427.667, 408.946 376.780 C 441.307 303.447, 437.843 233.113, 399.870 192.520 C 383.148 174.644, 358.859 162.855, 327.500 157.394 C 316.728 155.518, 280.444 154.708, 268 156.066 M 665.286 205.400 C 658.990 207.444, 652.764 211.398, 646.041 217.622 C 615.900 245.528, 564.409 340.814, 536.919 419.559 C 532.538 432.109, 527.759 440.060, 515.919 454.500 C 490.007 486.103, 456.152 502.853, 442.470 490.840 C 438.134 487.032, 436.785 482.494, 437.185 473.060 L 437.500 465.620 447 461.994 C 484.225 447.784, 513.891 423.508, 527.035 396.500 C 535.495 379.117, 537.064 363.782, 531.539 352.489 C 527.136 343.491, 518.621 338.072, 505.654 336.016 C 483.395 332.487, 457.194 344.514, 433.489 369.139 C 415.910 387.402, 403.141 407.546, 392.985 433.038 C 373.327 482.381, 381.827 521.487, 414.947 534.072 C 435.352 541.825, 460.081 536.522, 484.458 519.166 C 492.496 513.443, 513.648 493.299, 520.335 485 L 523.961 480.500 523.980 490.201 C 524.024 511.911, 530.590 525.227, 544.669 532.158 C 550.501 535.029, 552.184 535.394, 559.377 535.351 C 568.500 535.297, 575.740 533.146, 584.932 527.762 C 592.481 523.340, 612.955 502.793, 622.259 490.303 L 629.855 480.106 629.291 490.803 C 628.460 506.562, 631.042 516.016, 638.582 524.825 C 646.349 533.899, 661.076 537.298, 674.699 533.160 C 686.407 529.604, 700.650 519.138, 712.315 505.520 C 715.623 501.659, 718.705 498.350, 719.164 498.167 C 719.624 497.983, 720 498.925, 720 500.260 C 720 504.425, 723.794 513.952, 727.421 518.893 C 733.693 527.437, 746.017 532.062, 757.046 530.011 C 766.179 528.313, 774.514 523.369, 784.042 514 C 788.796 509.325, 794.050 503.721, 795.717 501.547 L 798.747 497.594 799.868 502.819 C 803.153 518.139, 813.828 528.072, 828.672 529.624 C 848.711 531.718, 874.397 513.405, 895.511 481.972 C 906.730 465.270, 915.664 444.129, 914.052 438.101 C 913.689 436.745, 912.180 434.730, 910.698 433.624 C 906.195 430.262, 903.648 432.052, 895.227 444.500 C 881.101 465.378, 864.491 483.891, 856.438 487.731 C 852.406 489.654, 849.991 488.299, 850.015 484.128 C 850.088 471.687, 866.275 431.414, 890.179 384.202 C 897.826 369.098, 903.998 355.697, 903.996 354.202 C 903.987 347.734, 897.776 342.219, 887.482 339.537 C 876.164 336.589, 867.711 338.284, 862.839 344.477 L 860.749 347.134 858.125 344.677 C 850.559 337.595, 836.200 335.043, 822.962 338.428 C 798.886 344.585, 769.829 369.812, 747.373 404.054 C 740.048 415.223, 731.479 431.601, 727.469 442.095 C 723.941 451.327, 716.041 462.662, 705 474.336 C 694.901 485.013, 689.705 489, 685.885 489 C 680.104 489, 679.571 482.271, 683.940 464.475 C 689.627 441.312, 707.225 400.176, 730.666 355.250 L 739.145 339 754.622 339 C 766.181 339, 770.809 338.633, 772.901 337.551 C 782.094 332.797, 792.231 311.374, 787.518 306.661 C 786.129 305.272, 783.576 305, 771.929 305 C 764.268 305, 758 304.717, 758 304.372 C 758 304.027, 762.490 296.248, 767.977 287.086 C 773.465 277.925, 778.463 268.971, 779.084 267.189 C 782.804 256.519, 772.617 247.005, 757.500 247.032 C 749.987 247.045, 744.342 248.977, 738.259 253.616 C 732.988 257.637, 721.785 272.895, 711.864 289.568 L 702.681 305 687.791 305 C 669.859 305, 668.896 305.374, 662.171 314.950 C 656.446 323.103, 653.231 332.016, 654.785 335.428 C 655.758 337.563, 656.555 337.714, 670.061 338.329 C 677.898 338.685, 684.493 339.160, 684.717 339.383 C 685.564 340.231, 661.467 386.436, 649.714 406.500 C 627.494 444.434, 600.748 479.375, 588.387 486.619 C 565.510 500.026, 574.755 453.073, 609.986 376.923 C 636.898 318.755, 671.332 259.836, 692.837 235.156 C 699.169 227.891, 699.231 227.760, 698.758 222.836 C 697.744 212.276, 688.570 204.777, 676.071 204.288 C 672.457 204.147, 667.604 204.647, 665.286 205.400 M 240.699 217.966 C 235.702 218.933, 234.491 220.308, 234.860 224.594 C 235.635 233.592, 231.916 242.677, 202.887 302.704 C 159.159 393.126, 146.446 420.315, 138.127 441.202 C 130.227 461.039, 128.584 467.798, 128.539 480.662 C 128.501 491.462, 128.597 491.964, 131.500 496.162 C 137.161 504.348, 152.802 509.765, 166.717 508.359 C 170.588 507.968, 173.441 507.121, 174.278 506.115 C 175.017 505.227, 177.799 499.775, 180.459 494 C 189.481 474.421, 211.691 428.698, 238.994 373.500 C 272.148 306.471, 281.262 287.190, 285.318 275.500 C 288.158 267.315, 288.444 265.368, 288.471 254 C 288.504 239.921, 287.269 236.165, 280.144 228.664 C 271.704 219.777, 254.892 215.218, 240.699 217.966 M 1250.908 252.890 C 1222.938 263.833, 1210.828 303.449, 1232 314.746 C 1238.505 318.216, 1250.012 317.722, 1258.383 313.612 C 1270.835 307.497, 1282.424 292.007, 1285.022 278.006 C 1287.101 266.799, 1282.614 257.002, 1273.509 252.865 C 1268.197 250.452, 1257.109 250.464, 1250.908 252.890 M 1205.500 335.831 C 1196.669 340.037, 1185.597 355.406, 1171.718 382.719 C 1151.305 422.890, 1140.567 455.629, 1139.321 481.500 C 1138.649 495.441, 1139.745 502.169, 1144.111 510.907 C 1147.591 517.870, 1152.292 522.329, 1159.757 525.746 C 1167.128 529.121, 1179.780 528.740, 1188 524.897 C 1195.555 521.365, 1207.892 511.202, 1214.759 502.855 L 1220.474 495.909 1221.593 500.205 C 1223.503 507.536, 1225.685 511.703, 1230.174 516.591 C 1236.068 523.011, 1242.671 525.978, 1251.093 525.990 C 1263.959 526.009, 1274.101 520.738, 1289.280 506.143 C 1294.460 501.162, 1298.039 498.347, 1297.726 499.500 C 1297.428 500.600, 1296.438 504.686, 1295.526 508.581 L 1293.867 515.662 1287.184 519.523 C 1250.239 540.863, 1237.034 549.930, 1223.917 562.965 C 1207.055 579.720, 1197.444 597.830, 1195.008 617.436 C 1190.951 650.080, 1210.309 672.944, 1242.040 672.988 C 1257.833 673.010, 1270.860 667.611, 1283.502 655.805 C 1302.354 638.199, 1315.752 611.920, 1327.878 568.765 C 1332.574 552.051, 1345 506.158, 1345 505.527 C 1345 504.990, 1353.926 501, 1355.127 501 C 1355.607 501, 1356 501.828, 1356 502.840 C 1356 503.852, 1357.373 507.428, 1359.051 510.787 C 1362.980 518.649, 1371.326 526.341, 1380.500 530.558 C 1389.516 534.701, 1395.917 536, 1407.321 536 C 1422.988 536, 1434.044 531.784, 1444.301 521.897 C 1449.134 517.238, 1449.448 517.095, 1451.247 518.724 C 1454.369 521.549, 1461.624 533.104, 1464.324 539.552 C 1470.550 554.417, 1471.647 576.231, 1467.039 593.500 C 1458.115 626.944, 1428.732 658.597, 1389.500 677.031 C 1371.406 685.533, 1352.031 691.176, 1329 694.653 C 1315.153 696.744, 1281.885 696.998, 1269 695.112 C 1231.897 689.681, 1200.148 680.118, 1163.749 663.412 C 1156.185 659.940, 1136.385 649.786, 1119.749 640.847 C 1103.112 631.907, 1081.150 620.681, 1070.944 615.898 C 962.475 565.071, 844.582 542.783, 698 545.394 C 553.982 547.959, 424.243 568.276, 341.500 601.221 C 300.288 617.631, 263.328 639.051, 236.434 662.113 C 175.721 714.174, 159.783 785.946, 193.876 853.754 C 201.636 869.188, 210.738 882, 213.942 882 C 214.937 882, 219.592 878.902, 224.287 875.115 C 250.430 854.030, 283.944 839.426, 323.500 831.882 C 337.613 829.190, 370.824 828.152, 384.352 829.980 C 404.327 832.679, 423.890 839.574, 436.415 848.330 C 442.922 852.879, 445.382 853.740, 447.566 852.235 C 448.152 851.831, 451.836 846.775, 455.752 841 C 477.668 808.685, 509.632 776.419, 539.873 756.085 C 573.037 733.786, 609.194 716.441, 651.646 702.467 C 733.730 675.446, 814.936 669.216, 897.991 683.566 C 950.400 692.621, 994.465 706.454, 1065.119 736.030 C 1139.872 767.323, 1173.754 778.654, 1213.500 785.656 C 1228.698 788.333, 1231.029 788.475, 1260 788.487 C 1292.714 788.501, 1300.602 787.757, 1325 782.355 C 1415.895 762.231, 1490.985 692.319, 1508.125 611.857 C 1509.914 603.457, 1510.342 598.099, 1510.391 583.500 C 1510.459 563.266, 1509.279 554.115, 1504.783 540 C 1497.391 516.794, 1483.256 496.927, 1466.692 486.462 L 1462.004 483.500 1462.002 473.460 C 1461.999 459.926, 1460.354 454.281, 1451.075 435.963 C 1442.065 418.177, 1440 412.124, 1440 403.497 C 1440 395.396, 1442.252 389.131, 1447.174 383.540 C 1453.478 376.378, 1458.826 373.737, 1468.113 373.200 C 1475.140 372.793, 1476.540 373.029, 1481.518 375.465 C 1484.575 376.961, 1488.044 379.493, 1489.226 381.092 C 1492.112 384.995, 1496.615 385.060, 1500.249 381.250 C 1503.800 377.528, 1505 373.952, 1505 367.095 C 1505 359.726, 1500.605 350.439, 1495.026 346.021 C 1472.204 327.945, 1432.522 336.457, 1410.032 364.252 C 1400.129 376.491, 1395 390.544, 1395 405.439 C 1395 418.266, 1397.210 425.268, 1407.751 445.842 C 1412.920 455.931, 1416.982 464.352, 1416.778 464.556 C 1416.574 464.759, 1413.953 464.278, 1410.953 463.485 C 1396.895 459.769, 1383.622 460.646, 1366.750 466.404 C 1361.388 468.235, 1357 469.398, 1357 468.989 C 1357 467.461, 1366.369 440.951, 1372.134 426.166 C 1379.965 406.085, 1383.877 397.286, 1394.874 375.028 C 1399.893 364.868, 1404 355.284, 1404 353.728 C 1404 349.266, 1401.363 345.297, 1396.508 342.452 C 1384.179 335.227, 1367.130 335.294, 1362.351 342.587 L 1360.852 344.874 1356.386 341.465 C 1350.406 336.900, 1345.254 335.528, 1334.500 335.636 C 1327.678 335.705, 1323.564 336.360, 1317.500 338.344 C 1279.496 350.778, 1238.680 398.748, 1223.968 448.268 C 1220.651 459.433, 1217.436 464.477, 1206.062 476.350 C 1199.223 483.490, 1193.201 487.398, 1190.585 486.394 C 1186.419 484.796, 1188.359 471.283, 1195.640 451.179 C 1203.353 429.881, 1215.879 403.622, 1233.408 372 C 1238.134 363.475, 1242.275 355.040, 1242.610 353.257 C 1243.872 346.545, 1240.670 341.409, 1232.651 337.284 C 1225.643 333.679, 1211.597 332.927, 1205.500 335.831 M 1333.137 369.619 C 1327.067 372.644, 1313.399 385.222, 1304.963 395.545 C 1287.123 417.378, 1270.577 452.820, 1269.261 472.022 C 1268.927 476.890, 1269.160 480.430, 1269.905 481.822 C 1273.400 488.352, 1284.862 479.743, 1298.958 460 C 1308.447 446.709, 1315.758 434.225, 1330.291 406.500 C 1337.210 393.300, 1344.098 380.233, 1345.597 377.462 C 1347.587 373.785, 1348.139 371.692, 1347.643 369.712 C 1347.035 367.291, 1346.503 367, 1342.677 367 C 1340.060 367, 1336.348 368.019, 1333.137 369.619 M 491.702 370.093 C 486.114 373.042, 473.719 385.222, 466.385 394.972 C 460.266 403.107, 447 427.430, 447 430.515 C 447 432.305, 457.629 426.020, 466.500 418.983 C 474.686 412.490, 488.709 397.731, 493.289 390.787 C 497.903 383.792, 501.977 375.207, 501.990 372.450 C 502.013 367.775, 497.886 366.829, 491.702 370.093 M 836.500 369.913 C 811.461 381.617, 774.678 437.954, 769.042 473.234 C 767.649 481.956, 768.702 485.409, 772.879 485.818 C 775.746 486.099, 776.923 485.326, 782.920 479.221 C 792.283 469.689, 804.302 451.176, 821.041 420.500 C 828.844 406.200, 837.877 389.911, 841.114 384.303 C 847.413 373.390, 848.117 370.668, 845.066 369.035 C 842.415 367.616, 841.134 367.748, 836.500 369.913 M 1387 493.923 C 1387 496.098, 1392.405 500.989, 1396.561 502.577 C 1400.293 504.002, 1401.723 504.100, 1404.898 503.149 C 1409.465 501.780, 1414.477 498.076, 1413.321 496.923 C 1410.525 494.132, 1387 491.451, 1387 493.923 M 1277 553.597 C 1249.422 574.928, 1232.899 596.489, 1229.831 615.147 C 1227.922 626.759, 1230.392 632, 1237.772 632 C 1242.350 632, 1245.769 630.024, 1251.160 624.260 C 1256.794 618.236, 1259.714 613.673, 1266.074 600.949 C 1273.291 586.509, 1287 551.759, 1287 547.903 C 1287 546.178, 1285.454 547.059, 1277 553.597 M 562.250 587.830 L 541 591.430 541 601.845 L 541 612.260 545.406 611.763 L 549.813 611.267 550.369 615.383 C 550.676 617.648, 551.230 633.535, 551.601 650.689 L 552.276 681.878 549.341 684.813 C 547.196 686.958, 544.483 688.185, 539.256 689.374 C 529.396 691.616, 527.306 691.460, 524.084 688.238 L 521.323 685.476 520.641 664.488 C 520.266 652.945, 519.676 637.563, 519.330 630.307 L 518.701 617.113 521.601 616.464 C 528.742 614.864, 528.263 615.750, 527.829 604.947 C 527.611 599.531, 527.213 594.880, 526.944 594.611 C 526.535 594.201, 490.367 600.715, 483.250 602.480 C 481.093 603.015, 481 603.477, 481 613.655 L 481 624.272 485.443 623.663 L 489.886 623.054 490.399 627.277 C 490.682 629.600, 491.393 646.125, 491.979 664 C 492.566 681.875, 493.295 698.998, 493.598 702.051 L 494.150 707.602 502.708 713.439 C 511.056 719.133, 511.367 719.251, 515.383 718.273 C 517.647 717.721, 529.536 714.653, 541.803 711.456 L 564.105 705.642 572.138 694.244 L 580.170 682.846 579.335 647.673 C 578.876 628.328, 578.500 611.156, 578.500 609.514 C 578.500 607.295, 579.014 606.450, 580.500 606.225 C 587.429 605.176, 587 605.952, 587 594.481 C 587 585.122, 586.813 584.012, 585.250 584.115 C 584.288 584.178, 573.938 585.850, 562.250 587.830 M 444.436 610.938 C 436.151 612.982, 424.737 615.927, 419.071 617.480 L 408.770 620.306 409.385 624.792 C 409.723 627.260, 410 632.198, 410 635.765 L 410 642.250 412.750 641.649 C 414.262 641.319, 416.453 640.775, 417.617 640.442 C 420.018 639.755, 419.918 638.601, 422.002 691 C 422.559 705.025, 423.209 718.910, 423.446 721.855 L 423.877 727.209 419.939 728.756 L 416 730.303 416.011 738.402 C 416.017 742.856, 416.291 748.126, 416.620 750.113 L 417.217 753.725 422.359 751.728 C 425.186 750.630, 436.500 746.476, 447.500 742.498 L 467.500 735.266 467.456 724.672 C 467.432 718.846, 467.165 713.831, 466.862 713.529 C 466.559 713.226, 464.372 713.663, 462 714.500 C 459.628 715.337, 457.570 715.903, 457.425 715.759 C 457.281 715.614, 456.460 700.647, 455.602 682.498 C 454.744 664.349, 453.765 645.337, 453.427 640.250 C 452.938 632.871, 453.085 630.999, 454.157 630.994 C 454.896 630.991, 457.188 630.520, 459.250 629.947 L 463 628.906 462.991 623.203 C 462.978 614.562, 461.857 606.986, 460.611 607.110 C 460 607.171, 452.721 608.893, 444.436 610.938 M 375.819 631.014 C 369.944 633.112, 359.196 637.202, 351.933 640.102 L 338.729 645.376 339.418 656.908 C 339.798 663.251, 340.260 668.593, 340.446 668.779 C 340.632 668.965, 342.477 668.410, 344.545 667.545 C 346.614 666.681, 348.478 666.145, 348.687 666.353 C 349.307 666.974, 351.154 701.396, 350.813 706.009 L 350.500 710.260 333.116 684.047 C 323.554 669.630, 315.135 657.605, 314.406 657.325 C 312.695 656.669, 305.359 660.041, 285.221 670.738 L 268.942 679.386 269.606 690.943 C 269.972 697.299, 270.408 702.661, 270.576 702.857 C 270.744 703.054, 273.385 701.858, 276.445 700.201 C 281.953 697.218, 282.013 697.209, 282.447 699.344 C 282.689 700.530, 283.593 716.125, 284.458 734 C 285.322 751.875, 286.301 769.930, 286.633 774.123 L 287.236 781.747 282.185 784.496 L 277.134 787.245 277.704 799.872 C 278.017 806.818, 278.376 812.627, 278.501 812.781 C 278.686 813.009, 315.600 794.688, 325.021 789.692 L 327.543 788.355 326.806 776.046 C 326.402 769.276, 325.878 763.545, 325.643 763.310 C 325.408 763.075, 323.523 763.590, 321.455 764.455 C 319.386 765.319, 317.544 765.878, 317.363 765.696 C 316.877 765.211, 314.005 717.662, 314.435 717.232 C 314.636 717.030, 319.196 723.083, 324.568 730.683 C 329.940 738.282, 339.323 751.449, 345.418 759.943 C 351.513 768.437, 356.739 775.728, 357.030 776.146 C 357.412 776.694, 376.522 769.633, 385.674 765.563 C 385.770 765.520, 385.220 754.239, 384.452 740.493 C 381.342 684.855, 380 659.485, 380 656.365 C 380 653.399, 380.388 652.964, 384 651.882 L 388 650.683 387.930 640.592 C 387.891 635.041, 387.554 629.757, 387.180 628.850 C 386.577 627.385, 385.297 627.629, 375.819 631.014" stroke="none" fill="#ffffff" fill-rule="evenodd"/></svg>